<svg width="15" height="16" viewBox="0 0 15 16" fill="none" xmlns="http://www.w3.org/2000/svg">
<path d="M10.1962 8.00037L14.7775 12.5818C15.0752 12.8794 15.0752 13.3626 14.7775 13.6602L13.161 15.2768C12.8634 15.5744 12.3809 15.5744 12.0825 15.2768L7.50038 10.6954L2.91823 15.2768C2.62062 15.5744 2.13813 15.5744 1.84052 15.2768L0.223208 13.6602C-0.0744025 13.3626 -0.0744025 12.8801 0.223208 12.5818L4.80535 8.00037L0.223208 3.41823C-0.0744025 3.12062 -0.0744025 2.63738 0.223208 2.33977L1.84127 0.723208C2.13888 0.425597 2.62137 0.425597 2.91898 0.723208L7.50038 5.30535L12.0825 0.723208C12.3801 0.425597 12.8626 0.425597 13.161 0.723208L14.7775 2.34052C15.0752 2.63813 15.0752 3.12062 14.7775 3.41898L10.1962 8.00037Z" fill="black"/>
</svg>
