<svg width="22" height="22" viewBox="0 0 22 22" fill="none" xmlns="http://www.w3.org/2000/svg">
<g clip-path="url(#clip0_1488_1565)">
<path d="M20.7168 1.06679C19.9674 0.349039 19.1418 -0.0146484 18.2597 -0.0146484C16.8806 -0.0146484 15.8741 0.876352 15.5991 1.14929C15.2113 1.53291 1.99619 14.7535 1.99619 14.7535C1.90957 14.8402 1.84701 14.9488 1.81469 15.067C1.51701 16.1684 0.0237553 21.0552 0.00863031 21.1047C-0.0683697 21.3549 0.000380307 21.6279 0.18463 21.8121C0.317318 21.9441 0.494005 22.0149 0.674818 22.0149C0.746318 22.0149 0.817818 22.0039 0.887943 21.9812C0.93813 21.9647 5.98232 20.3347 6.81282 20.0865C6.92213 20.0535 7.02251 19.9944 7.10363 19.9139C7.62819 19.3955 19.9537 7.20685 20.7718 6.36191C21.6181 5.49016 22.0389 4.58129 22.0224 3.66348C22.0052 2.75666 21.5659 1.88354 20.7154 1.06748L20.7168 1.06679ZM15.3798 3.34791C15.7297 3.43248 16.5561 3.71023 17.3996 4.56135C18.2521 5.42141 18.4824 6.40454 18.5258 6.62866C15.8225 9.31816 9.59994 15.4747 7.14694 17.9009C6.92076 17.3736 6.55432 16.7377 5.96513 16.1444C5.24601 15.4197 4.51382 15.0107 3.94938 14.7804C6.37694 12.3521 12.7171 6.00991 15.3791 3.3486L15.3798 3.34791ZM3.01644 15.9402C3.39457 16.0405 4.17901 16.332 4.97857 17.1378C5.59457 17.7593 5.88538 18.444 6.01601 18.862C5.06038 19.1694 2.96763 19.8912 1.63869 20.3202C2.03263 19.0236 2.69813 17.0051 3.01644 15.9402ZM19.7749 5.37879C19.7468 5.40766 19.7 5.45441 19.6443 5.51079C19.4271 4.95116 19.0462 4.23204 18.3855 3.56654C17.7111 2.8866 17.027 2.48579 16.4791 2.2486C16.5258 2.20254 16.5616 2.1661 16.576 2.15235C16.6544 2.07466 17.3687 1.39198 18.2583 1.39198C18.7705 1.39198 19.2738 1.62573 19.7536 2.08635C20.3229 2.63291 20.6171 3.17191 20.6268 3.68891C20.6364 4.21691 20.349 4.78548 19.7743 5.37879H19.7749Z" fill="black"/>
</g>
<defs>
<clipPath id="clip0_1488_1565">
<rect width="22" height="22" fill="white"/>
</clipPath>
</defs>
</svg>
