<svg width="38" height="44" viewBox="0 0 38 44" fill="none" xmlns="http://www.w3.org/2000/svg">
<path d="M12.1239 35.6647H5.89861C3.59149 35.6647 2.43793 35.6647 2.19522 35.4856C1.92255 35.2843 1.85592 35.1655 1.82639 34.828C1.80012 34.5275 2.50712 33.3705 3.92117 31.0568C5.38115 28.6678 6.62085 25.1894 6.62085 20.2647C6.62085 17.5418 7.77977 14.9305 9.84266 13.0051C11.9056 11.0797 14.7034 9.99805 17.6208 9.99805C20.5382 9.99805 23.3361 11.0797 25.3989 13.0051C27.462 14.9305 28.6208 17.5418 28.6208 20.2647C28.6208 25.1894 29.8605 28.6678 31.3206 31.0568C32.7345 33.3705 33.4416 34.5275 33.4154 34.828C33.3858 35.1655 33.3191 35.2843 33.0465 35.4856C32.8038 35.6647 31.6502 35.6647 29.3432 35.6647H23.1208M12.1239 35.6647L12.1208 37.498C12.1208 40.5357 14.5834 42.998 17.6208 42.998C20.6585 42.998 23.1208 40.5357 23.1208 37.498V35.6647M12.1239 35.6647H23.1208" stroke="black" stroke-width="2" stroke-linecap="round" stroke-linejoin="round"/>
<rect x="18" width="20" height="20" rx="10" fill="#950E1D"/>
<path d="M29.26 14.001H28.228V8.01298C28.228 7.78098 28.228 7.58498 28.228 7.42498C28.236 7.26498 28.244 7.11698 28.252 6.98098C28.26 6.83698 28.268 6.68898 28.276 6.53698C28.148 6.66498 28.032 6.77298 27.928 6.86098C27.824 6.94898 27.692 7.06098 27.532 7.19698L26.62 7.94098L26.068 7.23298L28.384 5.43298H29.26V14.001Z" fill="white"/>
</svg>
