<svg width="53" height="50" viewBox="0 0 53 50" fill="none" xmlns="http://www.w3.org/2000/svg">
<path d="M32.4315 25.0008L42.5106 35.0799C43.1653 35.7346 43.1653 36.7978 42.5106 37.4525L38.9542 41.0089C38.2994 41.6637 37.2379 41.6637 36.5815 41.0089L26.5008 30.9299L16.4201 41.0089C15.7654 41.6637 14.7039 41.6637 14.0492 41.0089L10.4911 37.4525C9.83631 36.7978 9.83631 35.7363 10.4911 35.0799L20.5718 25.0008L10.4911 14.9201C9.83631 14.2654 9.83631 13.2022 10.4911 12.5475L14.0508 8.99106C14.7055 8.33631 15.767 8.33631 16.4218 8.99106L26.5008 19.0718L36.5815 8.99106C37.2363 8.33631 38.2978 8.33631 38.9542 8.99106L42.5106 12.5492C43.1653 13.2039 43.1653 14.2654 42.5106 14.9218L32.4315 25.0008Z" fill="#950E1D"/>
</svg>
