<svg width="29" height="22" viewBox="0 0 29 22" fill="none" xmlns="http://www.w3.org/2000/svg">
<path d="M2.80969 10.6787C4.59683 6.0386 9.09721 2.75 14.3623 2.75V0C7.92236 0 2.42578 4.02417 0.243458 9.69018L2.80969 10.6787ZM14.3623 2.75C19.6273 2.75 24.1277 6.03862 25.9148 10.6787L28.4811 9.69018C26.2987 4.02419 20.8021 0 14.3623 0V2.75ZM25.9148 11.3213C24.1277 15.9614 19.6273 19.25 14.3623 19.25V22C20.8021 22 26.2987 17.9758 28.4811 12.3098L25.9148 11.3213ZM14.3623 19.25C9.09721 19.25 4.59683 15.9614 2.80969 11.3213L0.243458 12.3098C2.42578 17.9758 7.92236 22 14.3623 22V19.25ZM25.9148 10.6787C25.9944 10.8852 25.9944 11.1148 25.9148 11.3213L28.4811 12.3098C28.8057 11.4669 28.8057 10.5331 28.4811 9.69018L25.9148 10.6787ZM0.243458 9.69018C-0.0811525 10.5331 -0.0811525 11.4669 0.243458 12.3098L2.80969 11.3213C2.7301 11.1148 2.7301 10.8852 2.80969 10.6787L0.243458 9.69018Z" fill="#6F6F6F"/>
<path d="M14.3633 15.125C16.6415 15.125 18.4883 13.2782 18.4883 11C18.4883 8.72183 16.6415 6.875 14.3633 6.875C12.0851 6.875 10.2383 8.72183 10.2383 11C10.2383 13.2782 12.0851 15.125 14.3633 15.125Z" stroke="#6F6F6F" stroke-width="2" stroke-linecap="round" stroke-linejoin="round"/>
</svg>
