<svg width="37" height="35" viewBox="0 0 37 35" fill="none" xmlns="http://www.w3.org/2000/svg">
<path d="M16.8722 2.78281C17.3252 1.76656 17.5518 1.25844 17.8672 1.10196C18.1411 0.966013 18.4628 0.966013 18.7367 1.10196C19.0521 1.25844 19.2787 1.76656 19.7317 2.78281L23.3398 10.8774C23.4738 11.1778 23.5407 11.328 23.6444 11.4431C23.736 11.5449 23.8481 11.6263 23.9731 11.682C24.1146 11.745 24.2782 11.7623 24.6053 11.7968L33.4187 12.727C34.5252 12.8438 35.0784 12.9021 35.3247 13.1538C35.5386 13.3723 35.638 13.6783 35.5934 13.9809C35.5421 14.3292 35.1289 14.7015 34.3024 15.4464L27.7188 21.3794C27.4746 21.5996 27.3523 21.7097 27.275 21.8438C27.2065 21.9625 27.1637 22.0942 27.1494 22.2304C27.1331 22.3844 27.1672 22.5452 27.2355 22.8671L29.0744 31.5365C29.3052 32.625 29.4207 33.1691 29.2575 33.481C29.1156 33.7522 28.8554 33.9412 28.5539 33.9923C28.2068 34.051 27.7248 33.7731 26.761 33.2173L19.084 28.7893C18.7991 28.625 18.6567 28.543 18.5052 28.5107C18.3712 28.4823 18.2327 28.4823 18.0986 28.5107C17.9472 28.543 17.8048 28.625 17.5199 28.7893L9.84293 33.2173C8.87912 33.7731 8.39721 34.051 8.05008 33.9923C7.74854 33.9412 7.48823 33.7522 7.34649 33.481C7.18332 33.1691 7.29874 32.625 7.52961 31.5365L9.3684 22.8671C9.43665 22.5452 9.47078 22.3844 9.45457 22.2304C9.44023 22.0942 9.39744 21.9625 9.32896 21.8438C9.25157 21.7097 9.1294 21.5996 8.88507 21.3794L2.30164 15.4464C1.47512 14.7015 1.06186 14.3292 1.01048 13.9809C0.965864 13.6783 1.06528 13.3723 1.27922 13.1538C1.52553 12.9021 2.07877 12.8438 3.18527 12.727L11.9986 11.7968C12.3258 11.7623 12.4893 11.745 12.6307 11.682C12.7559 11.6263 12.8679 11.5449 12.9596 11.4431C13.0632 11.328 13.1301 11.1778 13.2641 10.8774L16.8722 2.78281Z" fill="#FFE600" stroke="#FFE600" stroke-width="2" stroke-linecap="round" stroke-linejoin="round"/>
</svg>
