<svg width="36" height="32" viewBox="0 0 36 32" fill="none" xmlns="http://www.w3.org/2000/svg">
<path d="M31.417 23.109V23.1317L28.0323 25.0899L28.0083 25.0761V25.1051C24.9059 26.8995 20.9251 29.2043 17.8252 31L14.6522 29.1627L14.6509 28.8955L14.4203 29.0291L11.2397 27.1881L11.2385 26.9323L11.018 27.0595L7.82731 25.2122V24.9664L7.61435 25.0887L4.41486 23.2363C4.41234 21.1571 4.40731 17.4309 4.40479 15.3504L7.61435 17.2091L7.81722 17.3263L7.82227 21.0298L7.61435 21.1495C10.8075 22.9994 14.8677 25.3483 18.0596 27.1969L18.0583 26.9234L21.2263 25.0887L21.467 25.2286V24.9501L24.6287 23.1191L24.8744 23.2615V22.9767C24.9172 22.9528 27.9907 21.1722 28.0323 21.1495L28.0033 21.1331L27.9983 17.2292C28.0411 17.2028 31.3641 15.2811 31.4069 15.2559C31.4094 17.2204 31.4145 21.1457 31.417 23.109Z" fill="#950E1D" stroke="#950E1D" stroke-miterlimit="10"/>
<path d="M34.822 10.8341V10.8668L31.4473 12.8213L31.4146 12.8024V12.839L28.045 14.7909L28.0072 14.7695V14.8123L24.877 16.6244L24.6414 16.7617L21.4646 14.922V14.6598L21.239 14.7909L18.0534 12.9473L18.0521 12.6953L17.8354 12.8213L14.6409 10.9714L14.6397 10.7308L17.8366 8.88087C19.7495 9.98601 22.9603 11.8497 24.8732 12.9549L24.872 12.6877C24.9287 12.655 27.9883 10.8832 28.0437 10.8517C27.9908 10.8177 24.9211 9.04343 24.8682 9.01193V8.74982L24.6414 8.88087L21.4557 7.03604V6.78527L21.239 6.91129L18.0433 5.06141V4.82072C14.8665 6.658 10.8026 9.01193 7.62704 10.8505C11.9392 13.3468 16.9268 16.235 21.239 18.7313L18.0622 20.5699L17.8354 20.7009L14.6498 18.8574V18.6066L14.433 18.7313L11.2373 16.8815V16.6408L11.0294 16.7617L7.82488 14.9056V14.6775L7.62704 14.7909L4.4137 12.9309L4.41244 12.7117L4.22468 12.8213L1.00126 10.9551L1 10.7471L4.22468 8.88087L4.40866 8.98673V8.77502L7.62704 6.91129L7.81606 7.01966V6.80165L11.0307 4.94044L11.2235 5.05259V4.82954L14.433 2.97085L14.6309 3.08552V2.85617L17.8366 1C20.9202 2.78561 24.9136 5.09795 27.9971 6.88356V6.93775L28.045 6.91003L31.4095 8.85945L31.4108 8.9023L31.4473 8.88087L34.822 10.8341Z" fill="#950E1D" stroke="#950E1D" stroke-miterlimit="10"/>
</svg>
