<svg width="50" height="50" viewBox="0 0 50 50" fill="none" xmlns="http://www.w3.org/2000/svg">
<g id="back-svgrepo-com 5">
<path id="Vector" d="M10.5645 23.4375H41.8145C42.2289 23.4375 42.6263 23.6021 42.9193 23.8951C43.2123 24.1882 43.377 24.5856 43.377 25C43.377 25.4144 43.2123 25.8118 42.9193 26.1049C42.6263 26.3979 42.2289 26.5625 41.8145 26.5625H10.5645C10.1501 26.5625 9.75262 26.3979 9.4596 26.1049C9.16657 25.8118 9.00195 25.4144 9.00195 25C9.00195 24.5856 9.16657 24.1882 9.4596 23.8951C9.75262 23.6021 10.1501 23.4375 10.5645 23.4375Z" fill="black"/>
<path id="Vector_2" d="M11.5844 25L24.5437 37.9563C24.8371 38.2497 25.002 38.6476 25.002 39.0625C25.002 39.4774 24.8371 39.8754 24.5437 40.1688C24.2503 40.4622 23.8524 40.627 23.4375 40.627C23.0226 40.627 22.6246 40.4622 22.3312 40.1688L8.26874 26.1063C8.12323 25.9611 8.00778 25.7887 7.92901 25.5989C7.85024 25.409 7.80969 25.2055 7.80969 25C7.80969 24.7945 7.85024 24.591 7.92901 24.4012C8.00778 24.2113 8.12323 24.0389 8.26874 23.8938L22.3312 9.83127C22.6246 9.53787 23.0226 9.37305 23.4375 9.37305C23.8524 9.37305 24.2503 9.53787 24.5437 9.83127C24.8371 10.1247 25.002 10.5226 25.002 10.9375C25.002 11.3524 24.8371 11.7504 24.5437 12.0438L11.5844 25Z" fill="black"/>
</g>
</svg>
