<svg width="19" height="17" viewBox="0 0 19 17" fill="none" xmlns="http://www.w3.org/2000/svg">
<path id="Vector" d="M14.125 13.1875H14.1344M12.8125 10.375H15.0625C15.9362 10.375 16.3729 10.375 16.7176 10.5177C17.1769 10.708 17.542 11.0731 17.7323 11.5324C17.875 11.8771 17.875 12.3138 17.875 13.1875C17.875 14.0612 17.875 14.4979 17.7323 14.8426C17.542 15.3019 17.1769 15.667 16.7176 15.8573C16.3729 16 15.9362 16 15.0625 16H3.8125C2.93886 16 2.50204 16 2.15747 15.8573C1.69804 15.667 1.33303 15.3019 1.14273 14.8426C1 14.4979 1 14.0612 1 13.1875C1 12.3138 1 11.8771 1.14273 11.5324C1.33303 11.0731 1.69804 10.708 2.15747 10.5177C2.50204 10.375 2.93886 10.375 3.8125 10.375H6.0625M9.4375 11.3125V1M9.4375 1L12.25 3.8125M9.4375 1L6.625 3.8125" stroke="black" stroke-width="2" stroke-linecap="round" stroke-linejoin="round"/>
</svg>
