<svg width="20" height="17" viewBox="0 0 20 17" fill="none" xmlns="http://www.w3.org/2000/svg">
    <path d="M2.29248 1L17.2925 16" stroke="black" stroke-width="2" stroke-linecap="round"/>
    <path fill-rule="evenodd" clip-rule="evenodd"
          d="M4.37662 2.53499C2.47259 3.71239 0.980625 5.49191 0.165994 7.60694C-0.0553312 8.18163 -0.0553312 8.81837 0.165994 9.39306C1.65394 13.2562 5.40161 16 9.79248 16C12.0631 16 14.1618 15.2662 15.8649 14.0233L14.5194 12.6777C13.1706 13.5915 11.5435 14.125 9.79248 14.125C6.20264 14.125 3.1342 11.8828 1.9157 8.71909C1.86143 8.57828 1.86143 8.42172 1.9157 8.28091C2.63683 6.40857 4.00591 4.85898 5.74754 3.90591L4.37662 2.53499ZM7.42956 5.58793C6.58323 6.2755 6.04245 7.32456 6.04245 8.5C6.04245 10.571 7.72138 12.25 9.79248 12.25C10.9678 12.25 12.017 11.7093 12.7045 10.8629L11.3643 9.52262C11.0297 10.0358 10.4507 10.375 9.79248 10.375C8.75692 10.375 7.91745 9.53556 7.91745 8.5C7.91745 7.84178 8.25667 7.26269 8.76976 6.92819L7.42956 5.58793ZM13.5075 9.01422L9.27826 4.78496C9.44635 4.76191 9.61801 4.75 9.79248 4.75C11.8635 4.75 13.5425 6.42893 13.5425 8.5C13.5425 8.67447 13.5306 8.84613 13.5075 9.01422ZM15.9498 11.4565C16.6867 10.6704 17.2749 9.74303 17.6692 8.71909C17.7234 8.57828 17.7234 8.42172 17.6692 8.28091C16.4507 5.11724 13.3823 2.875 9.79248 2.875C9.05017 2.875 8.33017 2.97087 7.64421 3.15093L6.15362 1.66035C7.28505 1.23356 8.51138 1 9.79248 1C14.1833 1 17.9309 3.74376 19.4189 7.60694C19.6403 8.18163 19.6403 8.81837 19.4189 9.39306C18.9297 10.6632 18.1962 11.8123 17.276 12.7827L15.9498 11.4565Z"
          fill="black"/>
</svg>
