<svg width="20" height="15" viewBox="0 0 20 15" fill="none" xmlns="http://www.w3.org/2000/svg">
<path d="M1.9157 7.28091C3.1342 4.11723 6.20264 1.875 9.79248 1.875V0C5.40161 0 1.65394 2.74375 0.165994 6.60694L1.9157 7.28091ZM9.79248 1.875C13.3823 1.875 16.4507 4.11724 17.6692 7.28091L19.4189 6.60694C17.9309 2.74376 14.1833 0 9.79248 0V1.875ZM17.6692 7.71909C16.4507 10.8828 13.3823 13.125 9.79248 13.125V15C14.1833 15 17.9309 12.2562 19.4189 8.39306L17.6692 7.71909ZM9.79248 13.125C6.20264 13.125 3.1342 10.8828 1.9157 7.71909L0.165994 8.39306C1.65394 12.2562 5.40161 15 9.79248 15V13.125ZM17.6692 7.28091C17.7234 7.42172 17.7234 7.57828 17.6692 7.71909L19.4189 8.39306C19.6403 7.81837 19.6403 7.18163 19.4189 6.60694L17.6692 7.28091ZM0.165994 6.60694C-0.0553312 7.18163 -0.0553312 7.81837 0.165994 8.39306L1.9157 7.71909C1.86143 7.57828 1.86143 7.42172 1.9157 7.28091L0.165994 6.60694Z" fill="black"/>
<path d="M9.79248 10.3125C11.3458 10.3125 12.605 9.0533 12.605 7.5C12.605 5.9467 11.3458 4.6875 9.79248 4.6875C8.23918 4.6875 6.97998 5.9467 6.97998 7.5C6.97998 9.0533 8.23918 10.3125 9.79248 10.3125Z" stroke="black" stroke-width="2" stroke-linecap="round" stroke-linejoin="round"/>
</svg>
