<svg width="270" height="241" viewBox="0 0 270 241" fill="none" xmlns="http://www.w3.org/2000/svg">
<path d="M242.18 176.961V177.141L215.32 192.681L215.13 192.571V192.801C190.51 207.041 158.92 225.331 134.32 239.581L109.14 225.001L109.13 222.881L107.3 223.941L82.06 209.331L82.05 207.301L80.3 208.311L54.98 193.651V191.701L53.29 192.671L27.9 177.971C27.88 161.471 27.84 131.901 27.82 115.391L53.29 130.141L54.9 131.071L54.94 160.461L53.29 161.411C78.63 176.091 110.85 194.731 136.18 209.401L136.17 207.231L161.31 192.671L163.22 193.781V191.571L188.31 177.041L190.26 178.171V175.911C190.6 175.721 214.99 161.591 215.32 161.411L215.09 161.281L215.05 130.301C215.39 130.091 241.76 114.841 242.1 114.641C242.12 130.231 242.16 161.381 242.18 176.961Z" fill="white" stroke="white" stroke-miterlimit="10"/>
<path d="M269.2 79.5497V79.8098L242.42 95.3198L242.16 95.1698V95.4597L215.42 110.95L215.12 110.78V111.12L190.28 125.5L188.41 126.59L163.2 111.99V109.91L161.41 110.95L136.13 96.3198L136.12 94.3198L134.4 95.3198L109.05 80.6398L109.04 78.7298L134.41 64.0497C149.59 72.8197 175.07 87.6098 190.25 96.3798L190.24 94.2598C190.69 93.9998 214.97 79.9398 215.41 79.6898C214.99 79.4198 190.63 65.3398 190.21 65.0898V63.0098L188.41 64.0497L163.13 49.4098V47.4198L161.41 48.4198L136.05 33.7397V31.8297C110.84 46.4097 78.59 65.0897 53.39 79.6797C87.61 99.4897 127.19 122.41 161.41 142.22L136.2 156.81L134.4 157.85L109.12 143.22V141.23L107.4 142.22L82.04 127.54V125.63L80.39 126.59L54.96 111.86V110.05L53.39 110.95L27.89 96.1898L27.88 94.4498L26.39 95.3198L0.809982 80.5098L0.799988 78.8597L26.39 64.0497L27.85 64.8898V63.2097L53.39 48.4198L54.89 49.2798V47.5497L80.4 32.7798L81.93 33.6698V31.8997L107.4 17.1497L108.97 18.0598V16.2397L134.41 1.50977C158.88 15.6798 190.57 34.0298 215.04 48.1998V48.6298L215.42 48.4098L242.12 63.8798L242.13 64.2198L242.42 64.0497L269.2 79.5497Z" fill="white" stroke="white" stroke-miterlimit="10"/>
</svg>
