<svg width="10" height="10" viewBox="0 0 10 10" fill="none" xmlns="http://www.w3.org/2000/svg">
<g id="error-16-svgrepo-com (1) 2" clip-path="url(#clip0_421_352)">
<path id="Vector" fill-rule="evenodd" clip-rule="evenodd" d="M4.68304 0.00897882C4.65117 0.0127288 4.54242 0.0239788 4.44179 0.0339788C3.27117 0.150854 2.09179 0.754604 1.29429 1.64585C0.412417 2.63148 -0.0357084 3.8546 0.00554162 5.15773C0.0774166 7.40835 1.62429 9.31398 3.81867 9.85648C5.10554 10.1746 6.52054 9.94773 7.64179 9.24398C8.76054 8.54085 9.54367 7.45773 9.85679 6.17898C9.96429 5.74085 9.98929 5.51773 9.98929 4.9996C9.98929 4.48148 9.96429 4.25835 9.85679 3.82023C9.36179 1.79835 7.69679 0.310854 5.62492 0.0396038C5.44742 0.0164788 4.80179 -0.00414618 4.68304 0.00897882ZM5.53304 0.976479C6.22929 1.06648 6.88117 1.3346 7.46492 1.77085C7.67054 1.9246 8.07492 2.32898 8.22867 2.5346C8.57929 3.00398 8.83867 3.55585 8.95617 4.08398C9.08992 4.6871 9.08992 5.3121 8.95617 5.91523C8.69742 7.07835 7.87804 8.11085 6.79179 8.6421C6.39929 8.83398 5.99429 8.9596 5.54992 9.0271C5.28492 9.06773 4.71492 9.06773 4.44992 9.0271C3.23242 8.8421 2.20492 8.17773 1.55804 7.15648C1.42429 6.94585 1.24929 6.57835 1.16179 6.32398C1.01117 5.88835 0.946167 5.48773 0.946167 4.9996C0.946167 4.35023 1.07179 3.79648 1.34992 3.2246C1.56242 2.78835 1.77867 2.4871 2.13304 2.13273C2.48742 1.77835 2.78867 1.5621 3.22492 1.3496C3.94554 0.998979 4.72929 0.872729 5.53304 0.976479ZM4.81617 2.68085C4.67617 2.72648 4.59679 2.80648 4.55804 2.94023C4.53554 3.01648 4.53304 3.19085 4.53679 4.2596C4.54179 5.49085 4.54179 5.49148 4.57804 5.5596C4.62367 5.64523 4.71117 5.72273 4.79429 5.7521C4.87679 5.78085 5.12304 5.78085 5.20554 5.7521C5.28867 5.72273 5.37617 5.64523 5.42179 5.5596C5.45804 5.49148 5.45804 5.49085 5.46304 4.2596C5.46804 2.9146 5.46804 2.91335 5.37242 2.80023C5.29492 2.70773 5.21179 2.6771 5.02492 2.6721C4.93304 2.6696 4.83929 2.67335 4.81617 2.68085ZM4.86617 6.58085C4.74804 6.6196 4.63117 6.72023 4.57429 6.8321C4.53054 6.9196 4.52304 7.07773 4.55867 7.18398C4.61742 7.3621 4.81054 7.4996 4.99992 7.4996C5.18929 7.4996 5.38242 7.3621 5.44117 7.18398C5.47679 7.07773 5.46929 6.9196 5.42554 6.8321C5.38492 6.7521 5.28742 6.65335 5.20804 6.6121C5.13554 6.5746 4.93992 6.55648 4.86617 6.58085Z" fill="#FF0000"/>
</g>
<defs>
<clipPath id="clip0_421_352">
<rect width="10" height="10" fill="white"/>
</clipPath>
</defs>
</svg>
