<svg width="21" height="20" viewBox="0 0 21 20" fill="none" xmlns="http://www.w3.org/2000/svg">
<path id="Vector" d="M2.01724 8.69565C1.29687 8.69565 0.712891 9.27965 0.712891 10C0.712891 10.7203 1.29687 11.3043 2.01724 11.3043V8.69565ZM10.7129 11.3043C11.4332 11.3043 12.0172 10.7203 12.0172 10C12.0172 9.27965 11.4332 8.69565 10.7129 8.69565V11.3043ZM10.7129 8.69565C9.99254 8.69565 9.40854 9.27965 9.40854 10C9.40854 10.7203 9.99254 11.3043 10.7129 11.3043V8.69565ZM19.4085 11.3043C20.1289 11.3043 20.7129 10.7203 20.7129 10C20.7129 9.27965 20.1289 8.69565 19.4085 8.69565V11.3043ZM12.0172 10C12.0172 9.27965 11.4332 8.69565 10.7129 8.69565C9.99254 8.69565 9.40854 9.27965 9.40854 10H12.0172ZM9.40854 18.6957C9.40854 19.416 9.99254 20 10.7129 20C11.4332 20 12.0172 19.416 12.0172 18.6957H9.40854ZM9.40854 10C9.40854 10.7203 9.99254 11.3043 10.7129 11.3043C11.4332 11.3043 12.0172 10.7203 12.0172 10H9.40854ZM12.0172 1.30435C12.0172 0.583983 11.4332 0 10.7129 0C9.99254 0 9.40854 0.583983 9.40854 1.30435H12.0172ZM2.01724 11.3043H10.7129V8.69565H2.01724V11.3043ZM10.7129 11.3043H19.4085V8.69565H10.7129V11.3043ZM10.7129 10H9.40854V10.0017C9.40854 10.0019 9.40854 10.0038 9.40854 10.0038C9.40854 10.0037 9.40854 10.004 9.40854 10.0038C9.40854 10.0038 9.40854 10.0057 9.40854 10.0059C9.40854 10.0057 9.40854 10.0061 9.40854 10.0059C9.40854 10.0061 9.40854 10.0075 9.40854 10.0077C9.40854 10.0078 9.40854 10.0094 9.40854 10.0096C9.40854 10.0097 9.40854 10.0111 9.40854 10.0113C9.40854 10.0115 9.40854 10.013 9.40854 10.0134C9.40854 10.0136 9.40854 10.0151 9.40854 10.0155C9.40854 10.0157 9.40854 10.0176 9.40854 10.0177C9.40854 10.0174 9.40854 10.0181 9.40854 10.0177C9.40854 10.0181 9.40854 10.0191 9.40854 10.0195C9.40854 10.0191 9.40854 10.0198 9.40854 10.0195C9.40854 10.0198 9.40854 10.021 9.40854 10.0212C9.40854 10.0209 9.40854 10.0216 9.40854 10.0212C9.40854 10.0216 9.40854 10.0228 9.40854 10.0231C9.40854 10.0228 9.40854 10.0235 9.40854 10.0231C9.40854 10.0235 9.40854 10.0249 9.40854 10.0252C9.40854 10.0249 9.40854 10.0256 9.40854 10.0252C9.40854 10.0256 9.40854 10.027 9.40854 10.0273C9.40854 10.0268 9.40854 10.0277 9.40854 10.0273C9.40854 10.0277 9.40854 10.0292 9.40854 10.0296C9.40854 10.0292 9.40854 10.0299 9.40854 10.0296C9.40854 10.0299 9.40854 10.0315 9.40854 10.032C9.40854 10.0315 9.40854 10.0323 9.40854 10.032C9.40854 10.0323 9.40854 10.0341 9.40854 10.0344C9.40854 10.0341 9.40854 10.0348 9.40854 10.0344C9.40854 10.035 9.40854 10.0365 9.40854 10.037C9.40854 10.0365 9.40854 10.0376 9.40854 10.037C9.40854 10.0374 9.40854 10.0393 9.40854 10.0398C9.40854 10.0393 9.40854 10.0402 9.40854 10.0398C9.40854 10.0403 9.40854 10.0421 9.40854 10.0426C9.40854 10.0421 9.40854 10.0431 9.40854 10.0426C9.40854 10.0431 9.40854 10.0452 9.40854 10.0457C9.40854 10.0452 9.40854 10.0463 9.40854 10.0457C9.40854 10.0463 9.40854 10.0483 9.40854 10.0489C9.40854 10.0483 9.40854 10.0494 9.40854 10.0489C9.40854 10.0494 9.40854 10.0515 9.40854 10.0522C9.40854 10.0517 9.40854 10.0527 9.40854 10.0522C9.40854 10.0529 9.40854 10.055 9.40854 10.0555C9.40854 10.0562 9.40854 10.0567 9.40854 10.0574C9.40854 10.0579 9.40854 10.0584 9.40854 10.0591C9.40854 10.0598 9.40854 10.0603 9.40854 10.061C9.40854 10.0616 9.40854 10.0623 9.40854 10.0628C9.40854 10.0635 9.40854 10.0642 9.40854 10.0649C9.40854 10.0654 9.40854 10.0661 9.40854 10.0668C9.40854 10.0675 9.40854 10.068 9.40854 10.0687C9.40854 10.0694 9.40854 10.0701 9.40854 10.0708C9.40854 10.0715 9.40854 10.0722 9.40854 10.0729C9.40854 10.0736 9.40854 10.0743 9.40854 10.075C9.40854 10.0757 9.40854 10.0765 9.40854 10.0772C9.40854 10.0779 9.40854 10.0786 9.40854 10.0793C9.40854 10.0802 9.40854 10.0809 9.40854 10.0816C9.40854 10.0824 9.40854 10.0831 9.40854 10.0838C9.40854 10.0847 9.40854 10.0854 9.40854 10.0863C9.40854 10.087 9.40854 10.0878 9.40854 10.0885C9.40854 10.0894 9.40854 10.0903 9.40854 10.091C9.40854 10.0918 9.40854 10.0927 9.40854 10.0936C9.40854 10.0943 9.40854 10.0951 9.40854 10.096C9.40854 10.0969 9.40854 10.0977 9.40854 10.0986C9.40854 10.0993 9.40854 10.1002 9.40854 10.101C9.40854 10.1019 9.40854 10.103 9.40854 10.1038C9.40854 10.1047 9.40854 10.1056 9.40854 10.1064C9.40854 10.1073 9.40854 10.1082 9.40854 10.1092C9.40854 10.1101 9.40854 10.111 9.40854 10.112C9.40854 10.1129 9.40854 10.1139 9.40854 10.1148C9.40854 10.1157 9.40854 10.1167 9.40854 10.1176C9.40854 10.1186 9.40854 10.1197 9.40854 10.1205C9.40854 10.1216 9.40854 10.1226 9.40854 10.1235C9.40854 10.1245 9.40854 10.1256 9.40854 10.1266C9.40854 10.1275 9.40854 10.1285 9.40854 10.1296C9.40854 10.1306 9.40854 10.1317 9.40854 10.1327C9.40854 10.1337 9.40854 10.1348 9.40854 10.1358C9.40854 10.1369 9.40854 10.1381 9.40854 10.1391C9.40854 10.1402 9.40854 10.1412 9.40854 10.1423C9.40854 10.1435 9.40854 10.1445 9.40854 10.1456C9.40854 10.1468 9.40854 10.1478 9.40854 10.149C9.40854 10.1501 9.40854 10.1513 9.40854 10.1523C9.40854 10.1536 9.40854 10.1548 9.40854 10.1558C9.40854 10.157 9.40854 10.1583 9.40854 10.1595C9.40854 10.1605 9.40854 10.1617 9.40854 10.163C9.40854 10.1642 9.40854 10.1654 9.40854 10.1666C9.40854 10.1678 9.40854 10.169 9.40854 10.1703C9.40854 10.1715 9.40854 10.1727 9.40854 10.1739C9.40854 10.1753 9.40854 10.1765 9.40854 10.1777C9.40854 10.1791 9.40854 10.1803 9.40854 10.1816C9.40854 10.183 9.40854 10.1842 9.40854 10.1856C9.40854 10.1868 9.40854 10.1882 9.40854 10.1894C9.40854 10.1908 9.40854 10.1922 9.40854 10.1934C9.40854 10.1948 9.40854 10.1962 9.40854 10.1976C9.40854 10.199 9.40854 10.2002 9.40854 10.2016C9.40854 10.203 9.40854 10.2043 9.40854 10.2057C9.40854 10.2071 9.40854 10.2087 9.40854 10.2101C9.40854 10.2115 9.40854 10.2129 9.40854 10.2143C9.40854 10.2158 9.40854 10.2172 9.40854 10.2186C9.40854 10.2202 9.40854 10.2216 9.40854 10.2231C9.40854 10.2245 9.40854 10.2261 9.40854 10.2275C9.40854 10.229 9.40854 10.2306 9.40854 10.232C9.40854 10.2336 9.40854 10.2351 9.40854 10.2367C9.40854 10.2381 9.40854 10.2397 9.40854 10.2412C9.40854 10.2428 9.40854 10.2443 9.40854 10.2459C9.40854 10.2475 9.40854 10.249 9.40854 10.2508C9.40854 10.2523 9.40854 10.2539 9.40854 10.2555C9.40854 10.2572 9.40854 10.2588 9.40854 10.2603C9.40854 10.2621 9.40854 10.2637 9.40854 10.2654C9.40854 10.267 9.40854 10.2687 9.40854 10.2704C9.40854 10.272 9.40854 10.2737 9.40854 10.2755C9.40854 10.2772 9.40854 10.2788 9.40854 10.2805C9.40854 10.2823 9.40854 10.284 9.40854 10.2857C9.40854 10.2875 9.40854 10.2892 9.40854 10.291C9.40854 10.2929 9.40854 10.2946 9.40854 10.2963C9.40854 10.2981 9.40854 10.3 9.40854 10.3017C9.40854 10.3035 9.40854 10.3054 9.40854 10.3071C9.40854 10.309 9.40854 10.3108 9.40854 10.3127C9.40854 10.3146 9.40854 10.3163 9.40854 10.3183C9.40854 10.3202 9.40854 10.3221 9.40854 10.324C9.40854 10.3259 9.40854 10.3278 9.40854 10.3297C9.40854 10.3317 9.40854 10.3336 9.40854 10.3355C9.40854 10.3374 9.40854 10.3393 9.40854 10.3412C9.40854 10.3433 9.40854 10.3452 9.40854 10.3473C9.40854 10.3492 9.40854 10.3511 9.40854 10.3532C9.40854 10.3551 9.40854 10.3572 9.40854 10.3593C9.40854 10.3612 9.40854 10.3633 9.40854 10.3654C9.40854 10.3675 9.40854 10.3696 9.40854 10.3717C9.40854 10.3737 9.40854 10.3758 9.40854 10.3779C9.40854 10.38 9.40854 10.3821 9.40854 10.3842C9.40854 10.3863 9.40854 10.3883 9.40854 10.3906C9.40854 10.3927 9.40854 10.395 9.40854 10.397C9.40854 10.3993 9.40854 10.4014 9.40854 10.4037C9.40854 10.4057 9.40854 10.408 9.40854 10.4103C9.40854 10.4123 9.40854 10.4146 9.40854 10.4169C9.40854 10.4191 9.40854 10.4214 9.40854 10.4237C9.40854 10.4259 9.40854 10.4282 9.40854 10.4304C9.40854 10.4327 9.40854 10.4351 9.40854 10.4374C9.40854 10.4397 9.40854 10.4421 9.40854 10.4443C9.40854 10.4468 9.40854 10.449 9.40854 10.4515C9.40854 10.4537 9.40854 10.4562 9.40854 10.4586C9.40854 10.4609 9.40854 10.4633 9.40854 10.4657C9.40854 10.4682 9.40854 10.4706 9.40854 10.473C9.40854 10.4755 9.40854 10.4779 9.40854 10.4803C9.40854 10.4828 9.40854 10.4854 9.40854 10.4878C9.40854 10.4903 9.40854 10.4929 9.40854 10.4953C9.40854 10.4979 9.40854 10.5003 9.40854 10.503C9.40854 10.5054 9.40854 10.508 9.40854 10.5106C9.40854 10.5132 9.40854 10.5157 9.40854 10.5183C9.40854 10.5209 9.40854 10.5235 9.40854 10.5261C9.40854 10.5287 9.40854 10.5313 9.40854 10.5341C9.40854 10.5367 9.40854 10.5393 9.40854 10.5419C9.40854 10.5447 9.40854 10.5473 9.40854 10.5501C9.40854 10.5527 9.40854 10.5555 9.40854 10.5581C9.40854 10.5609 9.40854 10.5637 9.40854 10.5664C9.40854 10.569 9.40854 10.5718 9.40854 10.5746C9.40854 10.5774 9.40854 10.5802 9.40854 10.583C9.40854 10.5857 9.40854 10.5887 9.40854 10.5915C9.40854 10.5943 9.40854 10.5972 9.40854 10.6C9.40854 10.6028 9.40854 10.6057 9.40854 10.6087C9.40854 10.6115 9.40854 10.6144 9.40854 10.6174C9.40854 10.6202 9.40854 10.6231 9.40854 10.6261C9.40854 10.629 9.40854 10.632 9.40854 10.635C9.40854 10.6379 9.40854 10.6409 9.40854 10.6438C9.40854 10.647 9.40854 10.6499 9.40854 10.6529C9.40854 10.656 9.40854 10.659 9.40854 10.6621C9.40854 10.665 9.40854 10.6682 9.40854 10.6711C9.40854 10.6743 9.40854 10.6774 9.40854 10.6805C9.40854 10.6837 9.40854 10.6868 9.40854 10.6899C9.40854 10.693 9.40854 10.6962 9.40854 10.6993C9.40854 10.7024 9.40854 10.7056 9.40854 10.7089C9.40854 10.712 9.40854 10.7153 9.40854 10.7184C9.40854 10.7217 9.40854 10.7249 9.40854 10.7282C9.40854 10.7315 9.40854 10.7346 9.40854 10.7379C9.40854 10.7412 9.40854 10.7445 9.40854 10.7478C9.40854 10.7511 9.40854 10.7544 9.40854 10.7579C9.40854 10.7612 9.40854 10.7645 9.40854 10.7678C9.40854 10.7713 9.40854 10.7746 9.40854 10.7781C9.40854 10.7814 9.40854 10.7849 9.40854 10.7883C9.40854 10.7917 9.40854 10.7951 9.40854 10.7986C9.40854 10.8021 9.40854 10.8056 9.40854 10.809C9.40854 10.8125 9.40854 10.816 9.40854 10.8195C9.40854 10.823 9.40854 10.8266 9.40854 10.8301C9.40854 10.8337 9.40854 10.8372 9.40854 10.8409C9.40854 10.8443 9.40854 10.848 9.40854 10.8517C9.40854 10.8551 9.40854 10.8588 9.40854 10.8624C9.40854 10.8661 9.40854 10.8697 9.40854 10.8734C9.40854 10.877 9.40854 10.8807 9.40854 10.8845C9.40854 10.8882 9.40854 10.8918 9.40854 10.8957C9.40854 10.8993 9.40854 10.9031 9.40854 10.9068C9.40854 10.9106 9.40854 10.9144 9.40854 10.9183C9.40854 10.9219 9.40854 10.9257 9.40854 10.9296C9.40854 10.9334 9.40854 10.9372 9.40854 10.9412C9.40854 10.945 9.40854 10.9489 9.40854 10.9527C9.40854 10.9567 9.40854 10.9605 9.40854 10.9645C9.40854 10.9683 9.40854 10.9723 9.40854 10.9763C9.40854 10.9802 9.40854 10.9842 9.40854 10.9882C9.40854 10.9922 9.40854 10.9962 9.40854 11.0002C9.40854 11.0042 9.40854 11.0082 9.40854 11.0123C9.40854 11.0163 9.40854 11.0203 9.40854 11.0245C9.40854 11.0285 9.40854 11.0327 9.40854 11.0369C9.40854 11.0409 9.40854 11.045 9.40854 11.0492C9.40854 11.0534 9.40854 11.0576 9.40854 11.0617C9.40854 11.0659 9.40854 11.0701 9.40854 11.0743C9.40854 11.0784 9.40854 11.0828 9.40854 11.087C9.40854 11.0911 9.40854 11.0955 9.40854 11.0998C9.40854 11.104 9.40854 11.1083 9.40854 11.1127C9.40854 11.1169 9.40854 11.1212 9.40854 11.1256C9.40854 11.1299 9.40854 11.1343 9.40854 11.1388C9.40854 11.1431 9.40854 11.1475 9.40854 11.1518C9.40854 11.1563 9.40854 11.1607 9.40854 11.1652C9.40854 11.1696 9.40854 11.1741 9.40854 11.1786C9.40854 11.1831 9.40854 11.1875 9.40854 11.192C9.40854 11.1965 9.40854 11.201 9.40854 11.2057C9.40854 11.2103 9.40854 11.2148 9.40854 11.2193C9.40854 11.224 9.40854 11.2285 9.40854 11.2332C9.40854 11.2377 9.40854 11.2424 9.40854 11.2471C9.40854 11.2518 9.40854 11.2563 9.40854 11.261C9.40854 11.2657 9.40854 11.2704 9.40854 11.2751C9.40854 11.28 9.40854 11.2847 9.40854 11.2894C9.40854 11.2943 9.40854 11.299 9.40854 11.3038C9.40854 11.3085 9.40854 11.3134 9.40854 11.3183C9.40854 11.323 9.40854 11.3278 9.40854 11.3327C9.40854 11.3376 9.40854 11.3424 9.40854 11.3473C9.40854 11.3523 9.40854 11.3572 9.40854 11.3621C9.40854 11.3671 9.40854 11.372 9.40854 11.377C9.40854 11.3819 9.40854 11.387 9.40854 11.392C9.40854 11.397 9.40854 11.4019 9.40854 11.407C9.40854 11.412 9.40854 11.4172 9.40854 11.4223C9.40854 11.4273 9.40854 11.4323 9.40854 11.4376C9.40854 11.4426 9.40854 11.4478 9.40854 11.4529C9.40854 11.4581 9.40854 11.4633 9.40854 11.4683C9.40854 11.4736 9.40854 11.4788 9.40854 11.484C9.40854 11.4892 9.40854 11.4944 9.40854 11.4998C9.40854 11.505 9.40854 11.5103 9.40854 11.5157C9.40854 11.5209 9.40854 11.5263 9.40854 11.5317C9.40854 11.5369 9.40854 11.5423 9.40854 11.5477C9.40854 11.553 9.40854 11.5584 9.40854 11.5638C9.40854 11.5692 9.40854 11.5746 9.40854 11.5802C9.40854 11.5856 9.40854 11.591 9.40854 11.5965C9.40854 11.6019 9.40854 11.6075 9.40854 11.613C9.40854 11.6186 9.40854 11.6242 9.40854 11.6297C9.40854 11.6351 9.40854 11.6409 9.40854 11.6464C9.40854 11.652 9.40854 11.6576 9.40854 11.6633C9.40854 11.6689 9.40854 11.6746 9.40854 11.6802C9.40854 11.6859 9.40854 11.6917 9.40854 11.6974C9.40854 11.703 9.40854 11.7087 9.40854 11.7144C9.40854 11.7203 9.40854 11.7261 9.40854 11.7318C9.40854 11.7376 9.40854 11.7435 9.40854 11.7492C9.40854 11.7551 9.40854 11.7609 9.40854 11.7668C9.40854 11.7727 9.40854 11.7786 9.40854 11.7845C9.40854 11.7904 9.40854 11.7963 9.40854 11.8023C9.40854 11.8082 9.40854 11.8143 9.40854 11.8202C9.40854 11.8261 9.40854 11.8322 9.40854 11.8383C9.40854 11.8442 9.40854 11.8503 9.40854 11.8563C9.40854 11.8624 9.40854 11.8685 9.40854 11.8746C9.40854 11.8807 9.40854 11.8868 9.40854 11.893C9.40854 11.8991 9.40854 11.9052 9.40854 11.9115C9.40854 11.9177 9.40854 11.9238 9.40854 11.9301C9.40854 11.9363 9.40854 11.9426 9.40854 11.9489C9.40854 11.9551 9.40854 11.9614 9.40854 11.9677C9.40854 11.9739 9.40854 11.9803 9.40854 11.9866C9.40854 11.993 9.40854 11.9993 9.40854 12.0057C9.40854 12.0122 9.40854 12.0186 9.40854 12.025C9.40854 12.0315 9.40854 12.0379 9.40854 12.0443C9.40854 12.0508 9.40854 12.0572 9.40854 12.0638C9.40854 12.0703 9.40854 12.0769 9.40854 12.0835C9.40854 12.0899 9.40854 12.0965 9.40854 12.1031C9.40854 12.1097 9.40854 12.1163 9.40854 12.123C9.40854 12.1296 9.40854 12.1362 9.40854 12.143C9.40854 12.1496 9.40854 12.1563 9.40854 12.163C9.40854 12.1697 9.40854 12.1765 9.40854 12.1833C9.40854 12.1899 9.40854 12.1967 9.40854 12.2037C9.40854 12.2104 9.40854 12.2172 9.40854 12.224C9.40854 12.231 9.40854 12.2377 9.40854 12.2447C9.40854 12.2515 9.40854 12.2584 9.40854 12.2654C9.40854 12.2723 9.40854 12.2793 9.40854 12.2863C9.40854 12.2932 9.40854 12.3002 9.40854 12.3071C9.40854 12.3143 9.40854 12.3212 9.40854 12.3283C9.40854 12.3353 9.40854 12.3424 9.40854 12.3496C9.40854 12.3565 9.40854 12.3637 9.40854 12.3708C9.40854 12.3781 9.40854 12.3852 9.40854 12.3923C9.40854 12.3995 9.40854 12.4068 9.40854 12.4139C9.40854 12.4212 9.40854 12.4285 9.40854 12.4357C9.40854 12.443 9.40854 12.4503 9.40854 12.4576C9.40854 12.4649 9.40854 12.4722 9.40854 12.4797C9.40854 12.487 9.40854 12.4943 9.40854 12.5017C9.40854 12.5092 9.40854 12.5165 9.40854 12.524C9.40854 12.5315 9.40854 12.539 9.40854 12.5464C9.40854 12.5539 9.40854 12.5614 9.40854 12.5689C9.40854 12.5765 9.40854 12.584 9.40854 12.5917C9.40854 12.5991 9.40854 12.6068 9.40854 12.6144C9.40854 12.6221 9.40854 12.6297 9.40854 12.6374C9.40854 12.645 9.40854 12.6527 9.40854 12.6603C9.40854 12.6682 9.40854 12.6758 9.40854 12.6837C9.40854 12.6913 9.40854 12.6991 9.40854 12.707C9.40854 12.7148 9.40854 12.7226 9.40854 12.7304C9.40854 12.7383 9.40854 12.7461 9.40854 12.7541C9.40854 12.7619 9.40854 12.7699 9.40854 12.7777C9.40854 12.7857 9.40854 12.7937 9.40854 12.8016C9.40854 12.8096 9.40854 12.8176 9.40854 12.8257C9.40854 12.8337 9.40854 12.8417 9.40854 12.8497C9.40854 12.8579 9.40854 12.8659 9.40854 12.8741C9.40854 12.8823 9.40854 12.8904 9.40854 12.8986C9.40854 12.9066 9.40854 12.915 9.40854 12.9231C9.40854 12.9313 9.40854 12.9395 9.40854 12.9478C9.40854 12.956 9.40854 12.9643 9.40854 12.9727C9.40854 12.9809 9.40854 12.9892 9.40854 12.9976C9.40854 13.0059 9.40854 13.0143 9.40854 13.0228C9.40854 13.0311 9.40854 13.0395 9.40854 13.048C9.40854 13.0565 9.40854 13.0649 9.40854 13.0734C9.40854 13.0819 9.40854 13.0904 9.40854 13.099C9.40854 13.1075 9.40854 13.116 9.40854 13.1247C9.40854 13.1332 9.40854 13.1417 9.40854 13.1504C9.40854 13.1591 9.40854 13.1677 9.40854 13.1763C9.40854 13.185 9.40854 13.1937 9.40854 13.2024C9.40854 13.2113 9.40854 13.22 9.40854 13.2287C9.40854 13.2376 9.40854 13.2463 9.40854 13.2551C9.40854 13.264 9.40854 13.2729 9.40854 13.2817C9.40854 13.2906 9.40854 13.2995 9.40854 13.3083C9.40854 13.3172 9.40854 13.3263 9.40854 13.3351C9.40854 13.3442 9.40854 13.3532 9.40854 13.3621C9.40854 13.3711 9.40854 13.3802 9.40854 13.3892C9.40854 13.3983 9.40854 13.4075 9.40854 13.4165C9.40854 13.4256 9.40854 13.4348 9.40854 13.444C9.40854 13.453 9.40854 13.4623 9.40854 13.4715C9.40854 13.4807 9.40854 13.4899 9.40854 13.4991C9.40854 13.5085 9.40854 13.5177 9.40854 13.527C9.40854 13.5363 9.40854 13.5457 9.40854 13.555C9.40854 13.5643 9.40854 13.5737 9.40854 13.5831C9.40854 13.5925 9.40854 13.6021 9.40854 13.6115C9.40854 13.6209 9.40854 13.6304 9.40854 13.6398C9.40854 13.6494 9.40854 13.659 9.40854 13.6685C9.40854 13.6781 9.40854 13.6877 9.40854 13.6972C9.40854 13.7068 9.40854 13.7165 9.40854 13.7261C9.40854 13.7358 9.40854 13.7454 9.40854 13.7551C9.40854 13.7649 9.40854 13.7746 9.40854 13.7843C9.40854 13.7941 9.40854 13.8038 9.40854 13.8137C9.40854 13.8235 9.40854 13.8332 9.40854 13.8431C9.40854 13.853 9.40854 13.863 9.40854 13.8727C9.40854 13.8826 9.40854 13.8927 9.40854 13.9026C9.40854 13.9125 9.40854 13.9224 9.40854 13.9325C9.40854 13.9424 9.40854 13.9525 9.40854 13.9626C9.40854 13.9727 9.40854 13.9828 9.40854 13.9929C9.40854 14.003 9.40854 14.013 9.40854 14.0233C9.40854 14.0334 9.40854 14.0437 9.40854 14.0537C9.40854 14.064 9.40854 14.0743 9.40854 14.0845C9.40854 14.0948 9.40854 14.105 9.40854 14.1153C9.40854 14.1257 9.40854 14.136 9.40854 14.1464C9.40854 14.1567 9.40854 14.1671 9.40854 14.1776C9.40854 14.188 9.40854 14.1984 9.40854 14.2089C9.40854 14.2193 9.40854 14.2299 9.40854 14.2403C9.40854 14.251 9.40854 14.2614 9.40854 14.272C9.40854 14.2826 9.40854 14.2932 9.40854 14.3038C9.40854 14.3144 9.40854 14.3252 9.40854 14.3358C9.40854 14.3464 9.40854 14.3572 9.40854 14.368C9.40854 14.3786 9.40854 14.3894 9.40854 14.4002C9.40854 14.411 9.40854 14.4217 9.40854 14.4327C9.40854 14.4435 9.40854 14.4543 9.40854 14.4652C9.40854 14.4762 9.40854 14.487 9.40854 14.4979C9.40854 14.5089 9.40854 14.5198 9.40854 14.531C9.40854 14.5419 9.40854 14.5529 9.40854 14.564C9.40854 14.575 9.40854 14.5861 9.40854 14.5972C9.40854 14.6083 9.40854 14.6195 9.40854 14.6306C9.40854 14.6417 9.40854 14.6529 9.40854 14.6642C9.40854 14.6753 9.40854 14.6866 9.40854 14.6979C9.40854 14.709 9.40854 14.7203 9.40854 14.7318C9.40854 14.7431 9.40854 14.7544 9.40854 14.7657C9.40854 14.7772 9.40854 14.7885 9.40854 14.8C9.40854 14.8115 9.40854 14.823 9.40854 14.8344C9.40854 14.8459 9.40854 14.8574 9.40854 14.8689C9.40854 14.8803 9.40854 14.892 9.40854 14.9037C9.40854 14.9151 9.40854 14.9268 9.40854 14.9384C9.40854 14.9501 9.40854 14.9617 9.40854 14.9734C9.40854 14.9852 9.40854 14.9969 9.40854 15.0087C9.40854 15.0203 9.40854 15.0322 9.40854 15.044C9.40854 15.0558 9.40854 15.0677 9.40854 15.0795C9.40854 15.0915 9.40854 15.1033 9.40854 15.1153C9.40854 15.1271 9.40854 15.1391 9.40854 15.1511C9.40854 15.1631 9.40854 15.1751 9.40854 15.1871C9.40854 15.1991 9.40854 15.2111 9.40854 15.2233C9.40854 15.2353 9.40854 15.2475 9.40854 15.2597C9.40854 15.2718 9.40854 15.284 9.40854 15.2962C9.40854 15.3083 9.40854 15.3205 9.40854 15.3329C9.40854 15.345 9.40854 15.3574 9.40854 15.3697C9.40854 15.3821 9.40854 15.3944 9.40854 15.4068C9.40854 15.4191 9.40854 15.4315 9.40854 15.444C9.40854 15.4563 9.40854 15.4689 9.40854 15.4814C9.40854 15.4937 9.40854 15.5063 9.40854 15.519C9.40854 15.5315 9.40854 15.544 9.40854 15.5565C9.40854 15.5692 9.40854 15.5817 9.40854 15.5944C9.40854 15.6071 9.40854 15.6198 9.40854 15.6325C9.40854 15.6452 9.40854 15.6579 9.40854 15.6708C9.40854 15.6835 9.40854 15.6963 9.40854 15.7092C9.40854 15.7219 9.40854 15.7348 9.40854 15.7477C9.40854 15.7607 9.40854 15.7736 9.40854 15.7864C9.40854 15.7995 9.40854 15.8123 9.40854 15.8254C9.40854 15.8384 9.40854 15.8515 9.40854 15.8645C9.40854 15.8776 9.40854 15.8906 9.40854 15.9038C9.40854 15.9169 9.40854 15.9301 9.40854 15.9433C9.40854 15.9563 9.40854 15.9696 9.40854 15.9828C9.40854 15.996 9.40854 16.0094 9.40854 16.0226C9.40854 16.036 9.40854 16.0492 9.40854 16.0626C9.40854 16.076 9.40854 16.0894 9.40854 16.1028C9.40854 16.1162 9.40854 16.1296 9.40854 16.1431C9.40854 16.1565 9.40854 16.1701 9.40854 16.1837C9.40854 16.197 9.40854 16.2106 9.40854 16.2243C9.40854 16.2379 9.40854 16.2515 9.40854 16.2652C9.40854 16.2788 9.40854 16.2925 9.40854 16.3061C9.40854 16.3198 9.40854 16.3336 9.40854 16.3473C9.40854 16.3612 9.40854 16.375 9.40854 16.3889C9.40854 16.4026 9.40854 16.4165 9.40854 16.4304C9.40854 16.4442 9.40854 16.4581 9.40854 16.4722C9.40854 16.4861 9.40854 16.5 9.40854 16.5141C9.40854 16.528 9.40854 16.5421 9.40854 16.5562C9.40854 16.5703 9.40854 16.5843 9.40854 16.5984C9.40854 16.6125 9.40854 16.6268 9.40854 16.6409C9.40854 16.6551 9.40854 16.6694 9.40854 16.6837C9.40854 16.6979 9.40854 16.7122 9.40854 16.7264C9.40854 16.7407 9.40854 16.7551 9.40854 16.7694C9.40854 16.7838 9.40854 16.7983 9.40854 16.8127C9.40854 16.8271 9.40854 16.8416 9.40854 16.856C9.40854 16.8706 9.40854 16.885 9.40854 16.8997C9.40854 16.9143 9.40854 16.9289 9.40854 16.9435C9.40854 16.9581 9.40854 16.9727 9.40854 16.9873C9.40854 17.0021 9.40854 17.0167 9.40854 17.0315C9.40854 17.0463 9.40854 17.061 9.40854 17.0758C9.40854 17.0906 9.40854 17.1054 9.40854 17.1203C9.40854 17.1351 9.40854 17.1501 9.40854 17.165C9.40854 17.18 9.40854 17.195 9.40854 17.2099C9.40854 17.2249 9.40854 17.2398 9.40854 17.255C9.40854 17.2699 9.40854 17.285 9.40854 17.3002C9.40854 17.3153 9.40854 17.3304 9.40854 17.3456C9.40854 17.3609 9.40854 17.376 9.40854 17.3913C9.40854 17.4064 9.40854 17.4217 9.40854 17.437C9.40854 17.4523 9.40854 17.4676 9.40854 17.4831C9.40854 17.4984 9.40854 17.5137 9.40854 17.5292C9.40854 17.5447 9.40854 17.5602 9.40854 17.5757C9.40854 17.5911 9.40854 17.6066 9.40854 17.6223C9.40854 17.6377 9.40854 17.6534 9.40854 17.669C9.40854 17.6845 9.40854 17.7002 9.40854 17.716C9.40854 17.7317 9.40854 17.7473 9.40854 17.7631C9.40854 17.7788 9.40854 17.7946 9.40854 17.8104C9.40854 17.8263 9.40854 17.8421 9.40854 17.8579C9.40854 17.8737 9.40854 17.8897 9.40854 17.9056C9.40854 17.9216 9.40854 17.9376 9.40854 17.9536C9.40854 17.9696 9.40854 17.9856 9.40854 18.0017C9.40854 18.0177 9.40854 18.0339 9.40854 18.0499C9.40854 18.0661 9.40854 18.0823 9.40854 18.0984C9.40854 18.1146 9.40854 18.131 9.40854 18.1471C9.40854 18.1635 9.40854 18.1797 9.40854 18.196C9.40854 18.2123 9.40854 18.2287 9.40854 18.245C9.40854 18.2616 9.40854 18.2779 9.40854 18.2944C9.40854 18.3108 9.40854 18.3273 9.40854 18.3438C9.40854 18.3603 9.40854 18.3769 9.40854 18.3936C9.40854 18.4101 9.40854 18.4268 9.40854 18.4433C9.40854 18.46 9.40854 18.4767 9.40854 18.4934C9.40854 18.5101 9.40854 18.527 9.40854 18.5437C9.40854 18.5605 9.40854 18.5772 9.40854 18.5941C9.40854 18.611 9.40854 18.6278 9.40854 18.6449C9.40854 18.6617 9.40854 18.6786 9.40854 18.6957H12.0172C12.0172 18.6786 12.0172 18.6617 12.0172 18.6449C12.0172 18.6278 12.0172 18.611 12.0172 18.5941C12.0172 18.5772 12.0172 18.5605 12.0172 18.5437C12.0172 18.527 12.0172 18.5101 12.0172 18.4934C12.0172 18.4767 12.0172 18.46 12.0172 18.4433C12.0172 18.4268 12.0172 18.4101 12.0172 18.3936C12.0172 18.3769 12.0172 18.3603 12.0172 18.3438C12.0172 18.3273 12.0172 18.3108 12.0172 18.2944C12.0172 18.2779 12.0172 18.2616 12.0172 18.245C12.0172 18.2287 12.0172 18.2123 12.0172 18.196C12.0172 18.1797 12.0172 18.1635 12.0172 18.1471C12.0172 18.131 12.0172 18.1146 12.0172 18.0984C12.0172 18.0823 12.0172 18.0661 12.0172 18.0499C12.0172 18.0339 12.0172 18.0177 12.0172 18.0017C12.0172 17.9856 12.0172 17.9696 12.0172 17.9536C12.0172 17.9376 12.0172 17.9216 12.0172 17.9056C12.0172 17.8897 12.0172 17.8737 12.0172 17.8579C12.0172 17.8421 12.0172 17.8263 12.0172 17.8104C12.0172 17.7946 12.0172 17.7788 12.0172 17.7631C12.0172 17.7473 12.0172 17.7317 12.0172 17.716C12.0172 17.7002 12.0172 17.6845 12.0172 17.669C12.0172 17.6534 12.0172 17.6377 12.0172 17.6223C12.0172 17.6066 12.0172 17.5911 12.0172 17.5757C12.0172 17.5602 12.0172 17.5447 12.0172 17.5292C12.0172 17.5137 12.0172 17.4984 12.0172 17.4831C12.0172 17.4676 12.0172 17.4523 12.0172 17.437C12.0172 17.4217 12.0172 17.4064 12.0172 17.3913C12.0172 17.376 12.0172 17.3609 12.0172 17.3456C12.0172 17.3304 12.0172 17.3153 12.0172 17.3002C12.0172 17.285 12.0172 17.2699 12.0172 17.255C12.0172 17.2398 12.0172 17.2249 12.0172 17.2099C12.0172 17.195 12.0172 17.18 12.0172 17.165C12.0172 17.1501 12.0172 17.1351 12.0172 17.1203C12.0172 17.1054 12.0172 17.0906 12.0172 17.0758C12.0172 17.061 12.0172 17.0463 12.0172 17.0315C12.0172 17.0167 12.0172 17.0021 12.0172 16.9873C12.0172 16.9727 12.0172 16.9581 12.0172 16.9435C12.0172 16.9289 12.0172 16.9143 12.0172 16.8997C12.0172 16.885 12.0172 16.8706 12.0172 16.856C12.0172 16.8416 12.0172 16.8271 12.0172 16.8127C12.0172 16.7983 12.0172 16.7838 12.0172 16.7694C12.0172 16.7551 12.0172 16.7407 12.0172 16.7264C12.0172 16.7122 12.0172 16.6979 12.0172 16.6837C12.0172 16.6694 12.0172 16.6551 12.0172 16.6409C12.0172 16.6268 12.0172 16.6125 12.0172 16.5984C12.0172 16.5843 12.0172 16.5703 12.0172 16.5562C12.0172 16.5421 12.0172 16.528 12.0172 16.5141C12.0172 16.5 12.0172 16.4861 12.0172 16.4722C12.0172 16.4581 12.0172 16.4442 12.0172 16.4304C12.0172 16.4165 12.0172 16.4026 12.0172 16.3889C12.0172 16.375 12.0172 16.3612 12.0172 16.3473C12.0172 16.3336 12.0172 16.3198 12.0172 16.3061C12.0172 16.2925 12.0172 16.2788 12.0172 16.2652C12.0172 16.2515 12.0172 16.2379 12.0172 16.2243C12.0172 16.2106 12.0172 16.197 12.0172 16.1837C12.0172 16.1701 12.0172 16.1565 12.0172 16.1431C12.0172 16.1296 12.0172 16.1162 12.0172 16.1028C12.0172 16.0894 12.0172 16.076 12.0172 16.0626C12.0172 16.0492 12.0172 16.036 12.0172 16.0226C12.0172 16.0094 12.0172 15.996 12.0172 15.9828C12.0172 15.9696 12.0172 15.9563 12.0172 15.9433C12.0172 15.9301 12.0172 15.9169 12.0172 15.9038C12.0172 15.8906 12.0172 15.8776 12.0172 15.8645C12.0172 15.8515 12.0172 15.8384 12.0172 15.8254C12.0172 15.8123 12.0172 15.7995 12.0172 15.7864C12.0172 15.7736 12.0172 15.7607 12.0172 15.7477C12.0172 15.7348 12.0172 15.7219 12.0172 15.7092C12.0172 15.6963 12.0172 15.6835 12.0172 15.6708C12.0172 15.6579 12.0172 15.6452 12.0172 15.6325C12.0172 15.6198 12.0172 15.6071 12.0172 15.5944C12.0172 15.5817 12.0172 15.5692 12.0172 15.5565C12.0172 15.544 12.0172 15.5315 12.0172 15.519C12.0172 15.5063 12.0172 15.4937 12.0172 15.4814C12.0172 15.4689 12.0172 15.4563 12.0172 15.444C12.0172 15.4315 12.0172 15.4191 12.0172 15.4068C12.0172 15.3944 12.0172 15.3821 12.0172 15.3697C12.0172 15.3574 12.0172 15.345 12.0172 15.3329C12.0172 15.3205 12.0172 15.3083 12.0172 15.2962C12.0172 15.284 12.0172 15.2718 12.0172 15.2597C12.0172 15.2475 12.0172 15.2353 12.0172 15.2233C12.0172 15.2111 12.0172 15.1991 12.0172 15.1871C12.0172 15.1751 12.0172 15.1631 12.0172 15.1511C12.0172 15.1391 12.0172 15.1271 12.0172 15.1153C12.0172 15.1033 12.0172 15.0915 12.0172 15.0795C12.0172 15.0677 12.0172 15.0558 12.0172 15.044C12.0172 15.0322 12.0172 15.0203 12.0172 15.0087C12.0172 14.9969 12.0172 14.9852 12.0172 14.9734C12.0172 14.9617 12.0172 14.9501 12.0172 14.9384C12.0172 14.9268 12.0172 14.9151 12.0172 14.9037C12.0172 14.892 12.0172 14.8803 12.0172 14.8689C12.0172 14.8574 12.0172 14.8459 12.0172 14.8344C12.0172 14.823 12.0172 14.8115 12.0172 14.8C12.0172 14.7885 12.0172 14.7772 12.0172 14.7657C12.0172 14.7544 12.0172 14.7431 12.0172 14.7318C12.0172 14.7203 12.0172 14.709 12.0172 14.6979C12.0172 14.6866 12.0172 14.6753 12.0172 14.6642C12.0172 14.6529 12.0172 14.6417 12.0172 14.6306C12.0172 14.6195 12.0172 14.6083 12.0172 14.5972C12.0172 14.5861 12.0172 14.575 12.0172 14.564C12.0172 14.5529 12.0172 14.5419 12.0172 14.531C12.0172 14.5198 12.0172 14.5089 12.0172 14.4979C12.0172 14.487 12.0172 14.4762 12.0172 14.4652C12.0172 14.4543 12.0172 14.4435 12.0172 14.4327C12.0172 14.4217 12.0172 14.411 12.0172 14.4002C12.0172 14.3894 12.0172 14.3786 12.0172 14.368C12.0172 14.3572 12.0172 14.3464 12.0172 14.3358C12.0172 14.3252 12.0172 14.3144 12.0172 14.3038C12.0172 14.2932 12.0172 14.2826 12.0172 14.272C12.0172 14.2614 12.0172 14.251 12.0172 14.2403C12.0172 14.2299 12.0172 14.2193 12.0172 14.2089C12.0172 14.1984 12.0172 14.188 12.0172 14.1776C12.0172 14.1671 12.0172 14.1567 12.0172 14.1464C12.0172 14.136 12.0172 14.1257 12.0172 14.1153C12.0172 14.105 12.0172 14.0948 12.0172 14.0845C12.0172 14.0743 12.0172 14.064 12.0172 14.0537C12.0172 14.0437 12.0172 14.0334 12.0172 14.0233C12.0172 14.013 12.0172 14.003 12.0172 13.9929C12.0172 13.9828 12.0172 13.9727 12.0172 13.9626C12.0172 13.9525 12.0172 13.9424 12.0172 13.9325C12.0172 13.9224 12.0172 13.9125 12.0172 13.9026C12.0172 13.8927 12.0172 13.8826 12.0172 13.8727C12.0172 13.863 12.0172 13.853 12.0172 13.8431C12.0172 13.8332 12.0172 13.8235 12.0172 13.8137C12.0172 13.8038 12.0172 13.7941 12.0172 13.7843C12.0172 13.7746 12.0172 13.7649 12.0172 13.7551C12.0172 13.7454 12.0172 13.7358 12.0172 13.7261C12.0172 13.7165 12.0172 13.7068 12.0172 13.6972C12.0172 13.6877 12.0172 13.6781 12.0172 13.6685C12.0172 13.659 12.0172 13.6494 12.0172 13.6398C12.0172 13.6304 12.0172 13.6209 12.0172 13.6115C12.0172 13.6021 12.0172 13.5925 12.0172 13.5831C12.0172 13.5737 12.0172 13.5643 12.0172 13.555C12.0172 13.5457 12.0172 13.5363 12.0172 13.527C12.0172 13.5177 12.0172 13.5085 12.0172 13.4991C12.0172 13.4899 12.0172 13.4807 12.0172 13.4715C12.0172 13.4623 12.0172 13.453 12.0172 13.444C12.0172 13.4348 12.0172 13.4256 12.0172 13.4165C12.0172 13.4075 12.0172 13.3983 12.0172 13.3892C12.0172 13.3802 12.0172 13.3711 12.0172 13.3621C12.0172 13.3532 12.0172 13.3442 12.0172 13.3351C12.0172 13.3263 12.0172 13.3172 12.0172 13.3083C12.0172 13.2995 12.0172 13.2906 12.0172 13.2817C12.0172 13.2729 12.0172 13.264 12.0172 13.2551C12.0172 13.2463 12.0172 13.2376 12.0172 13.2287C12.0172 13.22 12.0172 13.2113 12.0172 13.2024C12.0172 13.1937 12.0172 13.185 12.0172 13.1763C12.0172 13.1677 12.0172 13.1591 12.0172 13.1504C12.0172 13.1417 12.0172 13.1332 12.0172 13.1247C12.0172 13.116 12.0172 13.1075 12.0172 13.099C12.0172 13.0904 12.0172 13.0819 12.0172 13.0734C12.0172 13.0649 12.0172 13.0565 12.0172 13.048C12.0172 13.0395 12.0172 13.0311 12.0172 13.0228C12.0172 13.0143 12.0172 13.0059 12.0172 12.9976C12.0172 12.9892 12.0172 12.9809 12.0172 12.9727C12.0172 12.9643 12.0172 12.956 12.0172 12.9478C12.0172 12.9395 12.0172 12.9313 12.0172 12.9231C12.0172 12.915 12.0172 12.9066 12.0172 12.8986C12.0172 12.8904 12.0172 12.8823 12.0172 12.8741C12.0172 12.8659 12.0172 12.8579 12.0172 12.8497C12.0172 12.8417 12.0172 12.8337 12.0172 12.8257C12.0172 12.8176 12.0172 12.8096 12.0172 12.8016C12.0172 12.7937 12.0172 12.7857 12.0172 12.7777C12.0172 12.7699 12.0172 12.7619 12.0172 12.7541C12.0172 12.7461 12.0172 12.7383 12.0172 12.7304C12.0172 12.7226 12.0172 12.7148 12.0172 12.707C12.0172 12.6991 12.0172 12.6913 12.0172 12.6837C12.0172 12.6758 12.0172 12.6682 12.0172 12.6603C12.0172 12.6527 12.0172 12.645 12.0172 12.6374C12.0172 12.6297 12.0172 12.6221 12.0172 12.6144C12.0172 12.6068 12.0172 12.5991 12.0172 12.5917C12.0172 12.584 12.0172 12.5765 12.0172 12.5689C12.0172 12.5614 12.0172 12.5539 12.0172 12.5464C12.0172 12.539 12.0172 12.5315 12.0172 12.524C12.0172 12.5165 12.0172 12.5092 12.0172 12.5017C12.0172 12.4943 12.0172 12.487 12.0172 12.4797C12.0172 12.4722 12.0172 12.4649 12.0172 12.4576C12.0172 12.4503 12.0172 12.443 12.0172 12.4357C12.0172 12.4285 12.0172 12.4212 12.0172 12.4139C12.0172 12.4068 12.0172 12.3995 12.0172 12.3923C12.0172 12.3852 12.0172 12.3781 12.0172 12.3708C12.0172 12.3637 12.0172 12.3565 12.0172 12.3496C12.0172 12.3424 12.0172 12.3353 12.0172 12.3283C12.0172 12.3212 12.0172 12.3143 12.0172 12.3071C12.0172 12.3002 12.0172 12.2932 12.0172 12.2863C12.0172 12.2793 12.0172 12.2723 12.0172 12.2654C12.0172 12.2584 12.0172 12.2515 12.0172 12.2447C12.0172 12.2377 12.0172 12.231 12.0172 12.224C12.0172 12.2172 12.0172 12.2104 12.0172 12.2037C12.0172 12.1967 12.0172 12.1899 12.0172 12.1833C12.0172 12.1765 12.0172 12.1697 12.0172 12.163C12.0172 12.1563 12.0172 12.1496 12.0172 12.143C12.0172 12.1362 12.0172 12.1296 12.0172 12.123C12.0172 12.1163 12.0172 12.1097 12.0172 12.1031C12.0172 12.0965 12.0172 12.0899 12.0172 12.0835C12.0172 12.0769 12.0172 12.0703 12.0172 12.0638C12.0172 12.0572 12.0172 12.0508 12.0172 12.0443C12.0172 12.0379 12.0172 12.0315 12.0172 12.025C12.0172 12.0186 12.0172 12.0122 12.0172 12.0057C12.0172 11.9993 12.0172 11.993 12.0172 11.9866C12.0172 11.9803 12.0172 11.9739 12.0172 11.9677C12.0172 11.9614 12.0172 11.9551 12.0172 11.9489C12.0172 11.9426 12.0172 11.9363 12.0172 11.9301C12.0172 11.9238 12.0172 11.9177 12.0172 11.9115C12.0172 11.9052 12.0172 11.8991 12.0172 11.893C12.0172 11.8868 12.0172 11.8807 12.0172 11.8746C12.0172 11.8685 12.0172 11.8624 12.0172 11.8563C12.0172 11.8503 12.0172 11.8442 12.0172 11.8383C12.0172 11.8322 12.0172 11.8261 12.0172 11.8202C12.0172 11.8143 12.0172 11.8082 12.0172 11.8023C12.0172 11.7963 12.0172 11.7904 12.0172 11.7845C12.0172 11.7786 12.0172 11.7727 12.0172 11.7668C12.0172 11.7609 12.0172 11.7551 12.0172 11.7492C12.0172 11.7435 12.0172 11.7376 12.0172 11.7318C12.0172 11.7261 12.0172 11.7203 12.0172 11.7144C12.0172 11.7087 12.0172 11.703 12.0172 11.6974C12.0172 11.6917 12.0172 11.6859 12.0172 11.6802C12.0172 11.6746 12.0172 11.6689 12.0172 11.6633C12.0172 11.6576 12.0172 11.652 12.0172 11.6464C12.0172 11.6409 12.0172 11.6351 12.0172 11.6297C12.0172 11.6242 12.0172 11.6186 12.0172 11.613C12.0172 11.6075 12.0172 11.6019 12.0172 11.5965C12.0172 11.591 12.0172 11.5856 12.0172 11.5802C12.0172 11.5746 12.0172 11.5692 12.0172 11.5638C12.0172 11.5584 12.0172 11.553 12.0172 11.5477C12.0172 11.5423 12.0172 11.5369 12.0172 11.5317C12.0172 11.5263 12.0172 11.5209 12.0172 11.5157C12.0172 11.5103 12.0172 11.505 12.0172 11.4998C12.0172 11.4944 12.0172 11.4892 12.0172 11.484C12.0172 11.4788 12.0172 11.4736 12.0172 11.4683C12.0172 11.4633 12.0172 11.4581 12.0172 11.4529C12.0172 11.4478 12.0172 11.4426 12.0172 11.4376C12.0172 11.4323 12.0172 11.4273 12.0172 11.4223C12.0172 11.4172 12.0172 11.412 12.0172 11.407C12.0172 11.4019 12.0172 11.397 12.0172 11.392C12.0172 11.387 12.0172 11.3819 12.0172 11.377C12.0172 11.372 12.0172 11.3671 12.0172 11.3621C12.0172 11.3572 12.0172 11.3523 12.0172 11.3473C12.0172 11.3424 12.0172 11.3376 12.0172 11.3327C12.0172 11.3278 12.0172 11.323 12.0172 11.3183C12.0172 11.3134 12.0172 11.3085 12.0172 11.3038C12.0172 11.299 12.0172 11.2943 12.0172 11.2894C12.0172 11.2847 12.0172 11.28 12.0172 11.2751C12.0172 11.2704 12.0172 11.2657 12.0172 11.261C12.0172 11.2563 12.0172 11.2518 12.0172 11.2471C12.0172 11.2424 12.0172 11.2377 12.0172 11.2332C12.0172 11.2285 12.0172 11.224 12.0172 11.2193C12.0172 11.2148 12.0172 11.2103 12.0172 11.2057C12.0172 11.201 12.0172 11.1965 12.0172 11.192C12.0172 11.1875 12.0172 11.1831 12.0172 11.1786C12.0172 11.1741 12.0172 11.1696 12.0172 11.1652C12.0172 11.1607 12.0172 11.1563 12.0172 11.1518C12.0172 11.1475 12.0172 11.1431 12.0172 11.1388C12.0172 11.1343 12.0172 11.1299 12.0172 11.1256C12.0172 11.1212 12.0172 11.1169 12.0172 11.1127C12.0172 11.1083 12.0172 11.104 12.0172 11.0998C12.0172 11.0955 12.0172 11.0911 12.0172 11.087C12.0172 11.0828 12.0172 11.0784 12.0172 11.0743C12.0172 11.0701 12.0172 11.0659 12.0172 11.0617C12.0172 11.0576 12.0172 11.0534 12.0172 11.0492C12.0172 11.045 12.0172 11.0409 12.0172 11.0369C12.0172 11.0327 12.0172 11.0285 12.0172 11.0245C12.0172 11.0203 12.0172 11.0163 12.0172 11.0123C12.0172 11.0082 12.0172 11.0042 12.0172 11.0002C12.0172 10.9962 12.0172 10.9922 12.0172 10.9882C12.0172 10.9842 12.0172 10.9802 12.0172 10.9763C12.0172 10.9723 12.0172 10.9683 12.0172 10.9645C12.0172 10.9605 12.0172 10.9567 12.0172 10.9527C12.0172 10.9489 12.0172 10.945 12.0172 10.9412C12.0172 10.9372 12.0172 10.9334 12.0172 10.9296C12.0172 10.9257 12.0172 10.9219 12.0172 10.9183C12.0172 10.9144 12.0172 10.9106 12.0172 10.9068C12.0172 10.9031 12.0172 10.8993 12.0172 10.8957C12.0172 10.8918 12.0172 10.8882 12.0172 10.8845C12.0172 10.8807 12.0172 10.877 12.0172 10.8734C12.0172 10.8697 12.0172 10.8661 12.0172 10.8624C12.0172 10.8588 12.0172 10.8551 12.0172 10.8517C12.0172 10.848 12.0172 10.8443 12.0172 10.8409C12.0172 10.8372 12.0172 10.8337 12.0172 10.8301C12.0172 10.8266 12.0172 10.823 12.0172 10.8195C12.0172 10.816 12.0172 10.8125 12.0172 10.809C12.0172 10.8056 12.0172 10.8021 12.0172 10.7986C12.0172 10.7951 12.0172 10.7917 12.0172 10.7883C12.0172 10.7849 12.0172 10.7814 12.0172 10.7781C12.0172 10.7746 12.0172 10.7713 12.0172 10.7678C12.0172 10.7645 12.0172 10.7612 12.0172 10.7579C12.0172 10.7544 12.0172 10.7511 12.0172 10.7478C12.0172 10.7445 12.0172 10.7412 12.0172 10.7379C12.0172 10.7346 12.0172 10.7315 12.0172 10.7282C12.0172 10.7249 12.0172 10.7217 12.0172 10.7184C12.0172 10.7153 12.0172 10.712 12.0172 10.7089C12.0172 10.7056 12.0172 10.7024 12.0172 10.6993C12.0172 10.6962 12.0172 10.693 12.0172 10.6899C12.0172 10.6868 12.0172 10.6837 12.0172 10.6805C12.0172 10.6774 12.0172 10.6743 12.0172 10.6711C12.0172 10.6682 12.0172 10.665 12.0172 10.6621C12.0172 10.659 12.0172 10.656 12.0172 10.6529C12.0172 10.6499 12.0172 10.647 12.0172 10.6438C12.0172 10.6409 12.0172 10.6379 12.0172 10.635C12.0172 10.632 12.0172 10.629 12.0172 10.6261C12.0172 10.6231 12.0172 10.6202 12.0172 10.6174C12.0172 10.6144 12.0172 10.6115 12.0172 10.6087C12.0172 10.6057 12.0172 10.6028 12.0172 10.6C12.0172 10.5972 12.0172 10.5943 12.0172 10.5915C12.0172 10.5887 12.0172 10.5857 12.0172 10.583C12.0172 10.5802 12.0172 10.5774 12.0172 10.5746C12.0172 10.5718 12.0172 10.569 12.0172 10.5664C12.0172 10.5637 12.0172 10.5609 12.0172 10.5581C12.0172 10.5555 12.0172 10.5527 12.0172 10.5501C12.0172 10.5473 12.0172 10.5447 12.0172 10.5419C12.0172 10.5393 12.0172 10.5367 12.0172 10.5341C12.0172 10.5313 12.0172 10.5287 12.0172 10.5261C12.0172 10.5235 12.0172 10.5209 12.0172 10.5183C12.0172 10.5157 12.0172 10.5132 12.0172 10.5106C12.0172 10.508 12.0172 10.5054 12.0172 10.503C12.0172 10.5003 12.0172 10.4979 12.0172 10.4953C12.0172 10.4929 12.0172 10.4903 12.0172 10.4878C12.0172 10.4854 12.0172 10.4828 12.0172 10.4803C12.0172 10.4779 12.0172 10.4755 12.0172 10.473C12.0172 10.4706 12.0172 10.4682 12.0172 10.4657C12.0172 10.4633 12.0172 10.4609 12.0172 10.4586C12.0172 10.4562 12.0172 10.4537 12.0172 10.4515C12.0172 10.449 12.0172 10.4468 12.0172 10.4443C12.0172 10.4421 12.0172 10.4397 12.0172 10.4374C12.0172 10.4351 12.0172 10.4327 12.0172 10.4304C12.0172 10.4282 12.0172 10.4259 12.0172 10.4237C12.0172 10.4214 12.0172 10.4191 12.0172 10.4169C12.0172 10.4146 12.0172 10.4123 12.0172 10.4103C12.0172 10.408 12.0172 10.4057 12.0172 10.4037C12.0172 10.4014 12.0172 10.3993 12.0172 10.397C12.0172 10.395 12.0172 10.3927 12.0172 10.3906C12.0172 10.3883 12.0172 10.3863 12.0172 10.3842C12.0172 10.3821 12.0172 10.38 12.0172 10.3779C12.0172 10.3758 12.0172 10.3737 12.0172 10.3717C12.0172 10.3696 12.0172 10.3675 12.0172 10.3654C12.0172 10.3633 12.0172 10.3612 12.0172 10.3593C12.0172 10.3572 12.0172 10.3551 12.0172 10.3532C12.0172 10.3511 12.0172 10.3492 12.0172 10.3473C12.0172 10.3452 12.0172 10.3433 12.0172 10.3412C12.0172 10.3393 12.0172 10.3374 12.0172 10.3355C12.0172 10.3336 12.0172 10.3317 12.0172 10.3297C12.0172 10.3278 12.0172 10.3259 12.0172 10.324C12.0172 10.3221 12.0172 10.3202 12.0172 10.3183C12.0172 10.3163 12.0172 10.3146 12.0172 10.3127C12.0172 10.3108 12.0172 10.309 12.0172 10.3071C12.0172 10.3054 12.0172 10.3035 12.0172 10.3017C12.0172 10.3 12.0172 10.2981 12.0172 10.2963C12.0172 10.2946 12.0172 10.2929 12.0172 10.291C12.0172 10.2892 12.0172 10.2875 12.0172 10.2857C12.0172 10.284 12.0172 10.2823 12.0172 10.2805C12.0172 10.2788 12.0172 10.2772 12.0172 10.2755C12.0172 10.2737 12.0172 10.272 12.0172 10.2704C12.0172 10.2687 12.0172 10.267 12.0172 10.2654C12.0172 10.2637 12.0172 10.2621 12.0172 10.2603C12.0172 10.2588 12.0172 10.2572 12.0172 10.2555C12.0172 10.2539 12.0172 10.2523 12.0172 10.2508C12.0172 10.249 12.0172 10.2475 12.0172 10.2459C12.0172 10.2443 12.0172 10.2428 12.0172 10.2412C12.0172 10.2397 12.0172 10.2381 12.0172 10.2367C12.0172 10.2351 12.0172 10.2336 12.0172 10.232C12.0172 10.2306 12.0172 10.229 12.0172 10.2275C12.0172 10.2261 12.0172 10.2245 12.0172 10.2231C12.0172 10.2216 12.0172 10.2202 12.0172 10.2186C12.0172 10.2172 12.0172 10.2158 12.0172 10.2143C12.0172 10.2129 12.0172 10.2115 12.0172 10.2101C12.0172 10.2087 12.0172 10.2071 12.0172 10.2057C12.0172 10.2043 12.0172 10.203 12.0172 10.2016C12.0172 10.2002 12.0172 10.199 12.0172 10.1976C12.0172 10.1962 12.0172 10.1948 12.0172 10.1934C12.0172 10.1922 12.0172 10.1908 12.0172 10.1894C12.0172 10.1882 12.0172 10.1868 12.0172 10.1856C12.0172 10.1842 12.0172 10.183 12.0172 10.1816C12.0172 10.1803 12.0172 10.1791 12.0172 10.1777C12.0172 10.1765 12.0172 10.1753 12.0172 10.1739C12.0172 10.1727 12.0172 10.1715 12.0172 10.1703C12.0172 10.169 12.0172 10.1678 12.0172 10.1666C12.0172 10.1654 12.0172 10.1642 12.0172 10.163C12.0172 10.1617 12.0172 10.1605 12.0172 10.1595C12.0172 10.1583 12.0172 10.157 12.0172 10.1558C12.0172 10.1548 12.0172 10.1536 12.0172 10.1523C12.0172 10.1513 12.0172 10.1501 12.0172 10.149C12.0172 10.1478 12.0172 10.1468 12.0172 10.1456C12.0172 10.1445 12.0172 10.1435 12.0172 10.1423C12.0172 10.1412 12.0172 10.1402 12.0172 10.1391C12.0172 10.1381 12.0172 10.1369 12.0172 10.1358C12.0172 10.1348 12.0172 10.1337 12.0172 10.1327C12.0172 10.1317 12.0172 10.1306 12.0172 10.1296C12.0172 10.1285 12.0172 10.1275 12.0172 10.1266C12.0172 10.1256 12.0172 10.1245 12.0172 10.1235C12.0172 10.1226 12.0172 10.1216 12.0172 10.1205C12.0172 10.1197 12.0172 10.1186 12.0172 10.1176C12.0172 10.1167 12.0172 10.1157 12.0172 10.1148C12.0172 10.1139 12.0172 10.1129 12.0172 10.112C12.0172 10.111 12.0172 10.1101 12.0172 10.1092C12.0172 10.1082 12.0172 10.1073 12.0172 10.1064C12.0172 10.1056 12.0172 10.1047 12.0172 10.1038C12.0172 10.103 12.0172 10.1019 12.0172 10.101C12.0172 10.1002 12.0172 10.0993 12.0172 10.0986C12.0172 10.0977 12.0172 10.0969 12.0172 10.096C12.0172 10.0951 12.0172 10.0943 12.0172 10.0936C12.0172 10.0927 12.0172 10.0918 12.0172 10.091C12.0172 10.0903 12.0172 10.0894 12.0172 10.0885C12.0172 10.0878 12.0172 10.087 12.0172 10.0863C12.0172 10.0854 12.0172 10.0847 12.0172 10.0838C12.0172 10.0831 12.0172 10.0824 12.0172 10.0816C12.0172 10.0809 12.0172 10.0802 12.0172 10.0793C12.0172 10.0786 12.0172 10.0779 12.0172 10.0772C12.0172 10.0765 12.0172 10.0757 12.0172 10.075C12.0172 10.0743 12.0172 10.0736 12.0172 10.0729C12.0172 10.0722 12.0172 10.0715 12.0172 10.0708C12.0172 10.0701 12.0172 10.0694 12.0172 10.0687C12.0172 10.068 12.0172 10.0675 12.0172 10.0668C12.0172 10.0661 12.0172 10.0654 12.0172 10.0649C12.0172 10.0642 12.0172 10.0635 12.0172 10.0628C12.0172 10.0623 12.0172 10.0616 12.0172 10.061C12.0172 10.0603 12.0172 10.0598 12.0172 10.0591C12.0172 10.0584 12.0172 10.0579 12.0172 10.0574C12.0172 10.0567 12.0172 10.0562 12.0172 10.0555C12.0172 10.055 12.0172 10.0544 12.0172 10.0537C12.0172 10.0532 12.0172 10.0543 12.0172 10.0537C12.0172 10.053 12.0172 10.051 12.0172 10.0504C12.0172 10.0499 12.0172 10.051 12.0172 10.0504C12.0172 10.0499 12.0172 10.0478 12.0172 10.0473C12.0172 10.0468 12.0172 10.0478 12.0172 10.0473C12.0172 10.0468 12.0172 10.0447 12.0172 10.0442C12.0172 10.0437 12.0172 10.0447 12.0172 10.0442C12.0172 10.0437 12.0172 10.0417 12.0172 10.0412C12.0172 10.0407 12.0172 10.0416 12.0172 10.0412C12.0172 10.0407 12.0172 10.0388 12.0172 10.0384C12.0172 10.0379 12.0172 10.039 12.0172 10.0384C12.0172 10.0379 12.0172 10.0362 12.0172 10.0357C12.0172 10.0353 12.0172 10.036 12.0172 10.0357C12.0172 10.0353 12.0172 10.0336 12.0172 10.0332C12.0172 10.0327 12.0172 10.0336 12.0172 10.0332C12.0172 10.0327 12.0172 10.0311 12.0172 10.0308C12.0172 10.0304 12.0172 10.0311 12.0172 10.0308C12.0172 10.0304 12.0172 10.0289 12.0172 10.0285C12.0172 10.028 12.0172 10.0289 12.0172 10.0285C12.0172 10.0282 12.0172 10.0266 12.0172 10.0263C12.0172 10.0259 12.0172 10.0266 12.0172 10.0263C12.0172 10.0259 12.0172 10.0245 12.0172 10.0242C12.0172 10.0238 12.0172 10.0245 12.0172 10.0242C12.0172 10.0238 12.0172 10.0226 12.0172 10.0223C12.0172 10.0219 12.0172 10.0226 12.0172 10.0223C12.0172 10.0221 12.0172 10.0207 12.0172 10.0203C12.0172 10.02 12.0172 10.0181 12.0172 10.0177C12.0172 10.0176 12.0172 10.0157 12.0172 10.0155C12.0172 10.0153 12.0172 10.0136 12.0172 10.0134C12.0172 10.0132 12.0172 10.0117 12.0172 10.0113C12.0172 10.0111 12.0172 10.0099 12.0172 10.0096C12.0172 10.0094 12.0172 10.0078 12.0172 10.0077C12.0172 10.0075 12.0172 10.0078 12.0172 10.0077C12.0172 10.0075 12.0172 10.0061 12.0172 10.0059C12.0172 10.0057 12.0172 10.004 12.0172 10.0038C12.0172 10.0038 12.0172 10.0023 12.0172 10.0021C12.0172 10.0019 12.0172 10 12.0172 10H10.7129ZM12.0172 10V1.30435H9.40854V10H12.0172Z" fill="white"/>
</svg>
