<svg width="33" height="33" viewBox="0 0 33 33" fill="none" xmlns="http://www.w3.org/2000/svg">
<path id="Vector" d="M22.4315 16.5008L32.5106 26.5799C33.1653 27.2346 33.1653 28.2978 32.5106 28.9525L28.9542 32.5089C28.2994 33.1637 27.2379 33.1637 26.5815 32.5089L16.5008 22.4299L6.42011 32.5089C5.76537 33.1637 4.70389 33.1637 4.04915 32.5089L0.491057 28.9525C-0.163686 28.2978 -0.163686 27.2363 0.491057 26.5799L10.5718 16.5008L0.491057 6.42011C-0.163686 5.76537 -0.163686 4.70224 0.491057 4.0475L4.0508 0.491057C4.70555 -0.163686 5.76702 -0.163686 6.42176 0.491057L16.5008 10.5718L26.5815 0.491057C27.2363 -0.163686 28.2978 -0.163686 28.9542 0.491057L32.5106 4.04915C33.1653 4.70389 33.1653 5.76537 32.5106 6.42176L22.4315 16.5008Z" fill="black"/>
</svg>
