<svg width="20" height="20" viewBox="0 0 20 20" fill="none" xmlns="http://www.w3.org/2000/svg">
<path fill-rule="evenodd" clip-rule="evenodd" d="M9.36022 0.00819202C9.29647 0.015692 9.07897 0.038192 8.87772 0.058192C6.53647 0.291942 4.17772 1.49944 2.58272 3.28194C0.818974 5.25319 -0.0772761 7.69944 0.00522387 10.3057C0.148974 14.8069 3.24272 18.6182 7.63147 19.7032C10.2052 20.3394 13.0352 19.8857 15.2777 18.4782C17.5152 17.0719 19.0815 14.9057 19.7077 12.3482C19.9227 11.4719 19.9727 11.0257 19.9727 9.98944C19.9727 8.95319 19.9227 8.50694 19.7077 7.63069C18.7177 3.58694 15.3877 0.611942 11.244 0.069442C10.889 0.023192 9.59772 -0.018058 9.36022 0.00819202ZM11.0602 1.94319C12.4527 2.12319 13.7565 2.65944 14.924 3.53194C15.3352 3.83944 16.144 4.64819 16.4515 5.05944C17.1527 5.99819 17.6715 7.10194 17.9065 8.15819C18.174 9.36444 18.174 10.6144 17.9065 11.8207C17.389 14.1469 15.7502 16.2119 13.5777 17.2744C12.7927 17.6582 11.9827 17.9094 11.094 18.0444C10.564 18.1257 9.42397 18.1257 8.89397 18.0444C6.45897 17.6744 4.40397 16.3457 3.11022 14.3032C2.84272 13.8819 2.49272 13.1469 2.31772 12.6382C2.01647 11.7669 1.88647 10.9657 1.88647 9.98944C1.88647 8.69069 2.13772 7.58319 2.69397 6.43944C3.11897 5.56694 3.55147 4.96444 4.26022 4.25569C4.96897 3.54694 5.57147 3.11444 6.44397 2.68944C7.88522 1.98819 9.45272 1.73569 11.0602 1.94319ZM9.62647 5.35194C9.34647 5.44319 9.18772 5.60319 9.11022 5.87069C9.06522 6.02319 9.06022 6.37194 9.06772 8.50944C9.07772 10.9719 9.07772 10.9732 9.15022 11.1094C9.24147 11.2807 9.41647 11.4357 9.58272 11.4944C9.74772 11.5519 10.2402 11.5519 10.4052 11.4944C10.5715 11.4357 10.7465 11.2807 10.8377 11.1094C10.9102 10.9732 10.9102 10.9719 10.9202 8.50944C10.9302 5.81944 10.9302 5.81694 10.739 5.59069C10.584 5.40569 10.4177 5.34444 10.044 5.33444C9.86022 5.32944 9.67272 5.33694 9.62647 5.35194ZM9.72647 13.1519C9.49022 13.2294 9.25647 13.4307 9.14272 13.6544C9.05522 13.8294 9.04022 14.1457 9.11147 14.3582C9.22897 14.7144 9.61522 14.9894 9.99397 14.9894C10.3727 14.9894 10.759 14.7144 10.8765 14.3582C10.9477 14.1457 10.9327 13.8294 10.8452 13.6544C10.764 13.4944 10.569 13.2969 10.4102 13.2144C10.2652 13.1394 9.87397 13.1032 9.72647 13.1519Z" fill="#6F6F6F"/>
</svg>
